<svg width="22" height="18" viewBox="0 0 22 18" fill="none" xmlns="http://www.w3.org/2000/svg">
<g clip-path="url(#clip0_1_4118)">
<path d="M18.5956 1.52112C17.1785 0.844975 15.6827 0.337937 14.108 0H14.0293C13.8717 0.337937 13.6357 0.844975 13.4781 1.26773C11.7462 1.01408 10.0928 1.01408 8.4397 1.26773C8.28216 0.845242 8.04611 0.422754 7.88857 0H7.8098C6.23518 0.253653 4.73932 0.760691 3.32224 1.52112C0.488311 6.08446 -0.298876 10.5633 0.0947175 14.9578V15.0423C1.98417 16.5634 3.79485 17.4084 5.60553 18H5.68429C6.07789 17.4084 6.47148 16.7323 6.78656 16.0564V15.9718C6.15666 15.7185 5.60553 15.4648 5.05464 15.1269C4.97588 15.1269 4.97588 15.0423 5.05464 15.0423C5.13341 14.9578 5.29095 14.8732 5.36947 14.7889H5.44824C9.0696 16.5637 12.9273 16.5637 16.5489 14.7889H16.6276C16.7064 14.8735 16.8637 14.958 16.9425 15.0423C17.0212 15.0423 16.9425 15.1269 16.9425 15.1269C16.3913 15.4648 15.8402 15.803 15.2106 15.9718C15.2106 15.9718 15.1318 16.0564 15.2106 16.0564C15.5254 16.7325 15.9192 17.4084 16.3128 18H16.3916C18.2023 17.4084 20.0129 16.4789 21.9024 15.0423V14.9578C22.3748 9.88738 21.1152 5.49314 18.5959 1.52112H18.5956ZM7.33769 12.338C6.23542 12.338 5.36947 11.2394 5.36947 9.97194C5.36947 8.70447 6.23542 7.60584 7.33769 7.60584C8.43995 7.60584 9.3059 8.70447 9.3059 9.97194C9.3059 11.2394 8.43995 12.338 7.33769 12.338ZM14.6592 12.338C13.5569 12.338 12.691 11.2394 12.691 9.97194C12.691 8.70447 13.5569 7.60584 14.6592 7.60584C15.7614 7.60584 16.6274 8.70447 16.6274 9.97194C16.6274 11.2394 15.7614 12.338 14.6592 12.338Z" fill="black" fill-opacity="0.2"/>
</g>
<defs>
<clipPath id="clip0_1_4118">
<rect width="22" height="18" fill="white"/>
</clipPath>
</defs>
</svg>
