<svg width="15" height="12" viewBox="0 0 15 12" fill="none" xmlns="http://www.w3.org/2000/svg">
<g clip-path="url(#clip0_169_1036)">
<path d="M12.3397 1.72663C11.4701 1.34026 10.5522 1.05053 9.58592 0.857422H9.53759C9.44092 1.05053 9.29606 1.34026 9.19939 1.58184C8.13663 1.43689 7.12205 1.43689 6.10762 1.58184C6.01095 1.34042 5.86609 1.099 5.76942 0.857422H5.72109C4.75484 1.00237 3.83693 1.2921 2.96736 1.72663C1.22836 4.33426 0.74531 6.89357 0.986833 9.40472V9.45303C2.14627 10.3222 3.25737 10.8051 4.36847 11.1431H4.4168C4.65832 10.8051 4.89985 10.4187 5.09319 10.0325V9.98419C4.70666 9.8394 4.36847 9.69446 4.03042 9.50135C3.98209 9.50135 3.98209 9.45303 4.03042 9.45303C4.07876 9.40472 4.17543 9.3564 4.22361 9.30824H4.27195C6.49415 10.3224 8.86135 10.3224 11.0837 9.30824H11.132C11.1804 9.35656 11.2769 9.40487 11.3252 9.45303C11.3736 9.45303 11.3252 9.50135 11.3252 9.50135C10.987 9.69446 10.6488 9.88771 10.2625 9.98419C10.2625 9.98419 10.2141 10.0325 10.2625 10.0325C10.4556 10.4189 10.6973 10.8051 10.9388 11.1431H10.9872C12.0983 10.8051 13.2094 10.2739 14.3688 9.45303V9.40472C14.6587 6.50736 13.8858 3.99636 12.3398 1.72663H12.3397ZM5.43138 7.90772C4.75499 7.90772 4.22361 7.27993 4.22361 6.55567C4.22361 5.83141 4.75499 5.20362 5.43138 5.20362C6.10777 5.20362 6.63915 5.83141 6.63915 6.55567C6.63915 7.27993 6.10777 7.90772 5.43138 7.90772ZM9.92412 7.90772C9.24773 7.90772 8.71634 7.27993 8.71634 6.55567C8.71634 5.83141 9.24773 5.20362 9.92412 5.20362C10.6005 5.20362 11.1319 5.83141 11.1319 6.55567C11.1319 7.27993 10.6005 7.90772 9.92412 7.90772Z" fill="white"/>
</g>
<defs>
<clipPath id="clip0_169_1036">
<rect width="13.5" height="10.2857" fill="white" transform="translate(0.928711 0.857422)"/>
</clipPath>
</defs>
</svg>
