<svg width="57" height="43" viewBox="0 0 57 43" fill="none" xmlns="http://www.w3.org/2000/svg">
<g clip-path="url(#clip0_397_3556)">
<path d="M47.8343 3.63378C44.2271 2.01855 40.4195 0.807293 36.4114 0H36.2109C35.8099 0.807293 35.209 2.01855 34.808 3.02847C30.3995 2.42252 26.1909 2.42252 21.9829 3.02847C21.5819 2.01919 20.981 1.00991 20.58 0H20.3795C16.3714 0.605948 12.5637 1.81721 8.9566 3.63378C1.74297 14.5351 -0.260776 25.2344 0.741099 35.7324V35.9344C5.5506 39.5682 10.1596 41.5868 14.7686 43H14.9691C15.971 41.5868 16.9729 39.9715 17.7749 38.3569V38.155C16.1715 37.5497 14.7686 36.9437 13.3664 36.1364C13.1659 36.1364 13.1659 35.9344 13.3664 35.9344C13.5669 35.7324 13.9679 35.5305 14.1677 35.3291H14.3682C23.5863 39.5688 33.4058 39.5688 42.6244 35.3291H42.8249C43.0254 35.5311 43.4258 35.7331 43.6263 35.9344C43.8268 35.9344 43.6263 36.1364 43.6263 36.1364C42.2234 36.9437 40.8205 37.7516 39.2178 38.155C39.2178 38.155 39.0173 38.3569 39.2178 38.3569C40.0191 39.9722 41.0217 41.5868 42.0235 43H42.224C46.833 41.5868 51.442 39.3662 56.2515 35.9344V35.7324C57.4539 23.6199 54.2478 13.1225 47.8349 3.63378H47.8343ZM19.1777 29.4742C16.372 29.4742 14.1677 26.8497 14.1677 23.8218C14.1677 20.794 16.372 18.1695 19.1777 18.1695C21.9835 18.1695 24.1878 20.794 24.1878 23.8218C24.1878 26.8497 21.9835 29.4742 19.1777 29.4742ZM37.8143 29.4742C35.0085 29.4742 32.8043 26.8497 32.8043 23.8218C32.8043 20.794 35.0085 18.1695 37.8143 18.1695C40.62 18.1695 42.8243 20.794 42.8243 23.8218C42.8243 26.8497 40.62 29.4742 37.8143 29.4742Z" fill="#0ECF74"/>
</g>
<defs>
<clipPath id="clip0_397_3556">
<rect width="56" height="43" fill="white" transform="translate(0.5)"/>
</clipPath>
</defs>
</svg>
