<svg width="43" height="42" viewBox="0 0 43 42" fill="none" xmlns="http://www.w3.org/2000/svg">
<g clip-path="url(#clip0_397_3560)">
<mask id="mask0_397_3560" style="mask-type:luminance" maskUnits="userSpaceOnUse" x="0" y="0" width="43" height="42">
<path d="M42.5 0H0.5V42H42.5V0Z" fill="white"/>
</mask>
<g mask="url(#mask0_397_3560)">
<path d="M21.683 -0.00509458C9.94118 -0.104164 0.402581 9.43444 0.500255 21.1763C0.59793 32.5791 9.91467 41.8958 21.3147 41.9907C33.0565 42.0926 42.5979 32.5512 42.4975 20.8093C42.4026 9.40932 33.0858 0.0925798 21.683 -0.00509458ZM15.404 10.4461C16.7477 12.154 17.5528 14.314 17.5528 16.6582C17.5528 18.6884 16.95 20.5777 15.9147 22.1572H8.63514L15.404 10.4461ZM37.6012 24.7498C37.6012 24.8475 37.5482 24.9312 37.4575 24.9703C36.9635 25.181 35.3365 25.9358 34.657 26.8777C32.91 29.3098 31.5775 33.1316 28.5956 33.1316H16.1533C11.7468 33.1316 8.06165 29.6349 8.06444 24.9772C8.06444 24.8614 8.16212 24.7665 8.27793 24.7665H14.1761C14.3784 24.7665 14.5403 24.9312 14.5403 25.1307V26.2679C14.5403 26.8735 15.03 27.3633 15.6356 27.3633H20.1091V24.7596H17.0533C18.81 22.534 19.8565 19.7223 19.8565 16.6637C19.8565 13.2507 18.5477 10.1405 16.4058 7.81165C17.7007 7.96235 18.9398 8.22049 20.1091 8.56374V7.83956C20.1091 7.08746 20.7175 6.4777 21.471 6.4777C22.2244 6.4777 22.8328 7.08607 22.8328 7.83956V9.58653C27.0091 11.5358 29.7412 14.7703 29.7412 18.4275C29.7412 20.5735 28.8035 22.5716 27.1821 24.2516C26.871 24.574 26.4398 24.7554 25.9891 24.7554H22.8314V27.3563H26.7942C27.6482 27.3563 29.1816 25.7363 29.9086 24.7596C29.9086 24.7596 29.9407 24.7107 30.0244 24.6856C30.1082 24.6605 37.3012 23.0098 37.3012 23.0098C37.4519 22.9679 37.6026 23.0837 37.6026 23.2372V24.7498H37.6012Z" fill="#FF7E00"/>
</g>
</g>
<defs>
<clipPath id="clip0_397_3560">
<rect width="42" height="42" fill="white" transform="translate(0.5)"/>
</clipPath>
</defs>
</svg>
