<svg width="32" height="32" viewBox="0 0 32 32" fill="none" xmlns="http://www.w3.org/2000/svg">
<path d="M16.1052 4.00044C9.3954 3.94382 3.94461 9.39479 4.00042 16.1048C4.05624 22.6211 9.38025 27.9453 15.8947 27.9995C22.6046 28.0577 28.057 22.6052 27.9996 15.8951C27.9453 9.38044 22.6213 4.05625 16.1052 4.00044ZM12.5171 9.9729C13.285 10.9489 13.745 12.1833 13.745 13.5229C13.745 14.6831 13.4006 15.7628 12.8089 16.6654H8.64907L12.5171 9.9729ZM25.2016 18.147C25.2016 18.2028 25.1713 18.2506 25.1195 18.273C24.8372 18.3934 23.9075 18.8247 23.5191 19.363C22.5208 20.7528 21.7594 22.9369 20.0554 22.9369H12.9453C10.4272 22.9369 8.32135 20.9386 8.32295 18.2769C8.32295 18.2108 8.37876 18.1565 8.44494 18.1565H11.8154C11.931 18.1565 12.0235 18.2506 12.0235 18.3647V19.0145C12.0235 19.3606 12.3034 19.6405 12.6495 19.6405H15.2058V18.1525H13.4596C14.4635 16.8807 15.0615 15.274 15.0615 13.5261C15.0615 11.5757 14.3136 9.79827 13.0896 8.46743C13.8296 8.55354 14.5376 8.70106 15.2058 8.89722V8.48337C15.2058 8.05358 15.5535 7.70512 15.984 7.70512C16.4146 7.70512 16.7623 8.05278 16.7623 8.48337V9.48171C19.1488 10.5957 20.71 12.444 20.71 14.534C20.71 15.7604 20.1742 16.9022 19.2477 17.8623C19.0698 18.0465 18.8235 18.1502 18.5659 18.1502H16.7615V19.6365H19.026C19.514 19.6365 20.3903 18.7107 20.8057 18.1525C20.8057 18.1525 20.8241 18.1246 20.8719 18.1103C20.9197 18.0959 25.0302 17.1526 25.0302 17.1526C25.1163 17.1287 25.2024 17.1949 25.2024 17.2826V18.147H25.2016Z" fill="black" fill-opacity="0.2"/>
</svg>
