<svg width="13" height="13" viewBox="0 0 13 13" fill="none" xmlns="http://www.w3.org/2000/svg">
<mask id="mask0_668_451" style="mask-type:luminance" maskUnits="userSpaceOnUse" x="0" y="0" width="13" height="13">
<path d="M12.7861 0.571289H0.571777V12.7856H12.7861V0.571289Z" fill="white"/>
</mask>
<g mask="url(#mask0_668_451)">
<path d="M6.73181 0.570535C3.31708 0.541724 0.5431 3.31571 0.571505 6.73043C0.599911 10.0465 3.30937 12.756 6.62468 12.7836C10.0394 12.8132 12.8142 10.0384 12.785 6.62371C12.7574 3.3084 10.0479 0.59894 6.73181 0.570535ZM4.90575 3.6099C5.29653 4.10659 5.53067 4.73475 5.53067 5.41648C5.53067 6.00691 5.35537 6.55635 5.05427 7.0157H2.93726L4.90575 3.6099ZM11.3611 7.76966C11.3611 7.79807 11.3456 7.82241 11.3193 7.83377C11.1756 7.89505 10.7025 8.11458 10.5048 8.38849C9.99679 9.09578 9.60927 10.2072 8.74209 10.2072H5.12366C3.84217 10.2072 2.77048 9.19033 2.77129 7.8358C2.77129 7.80212 2.7997 7.77453 2.83338 7.77453H4.54866C4.60749 7.77453 4.65457 7.82241 4.65457 7.88044V8.21116C4.65457 8.38727 4.797 8.5297 4.97311 8.5297H6.27408V7.7725H5.38539C5.89628 7.12526 6.20063 6.3076 6.20063 5.41811C6.20063 4.42554 5.82 3.52104 5.19711 2.84377C5.57368 2.8876 5.93402 2.96267 6.27408 3.06249V2.85189C6.27408 2.63317 6.451 2.45584 6.67013 2.45584C6.88925 2.45584 7.06618 2.63276 7.06618 2.85189V3.35994C8.28071 3.92683 9.07524 4.86745 9.07524 5.93102C9.07524 6.55513 8.80255 7.13622 8.33103 7.62479C8.24053 7.71853 8.11515 7.77128 7.98408 7.77128H7.06577V8.52768H8.21822C8.46656 8.52768 8.91252 8.05655 9.12394 7.7725C9.12394 7.7725 9.13327 7.7583 9.15762 7.75099C9.18197 7.74369 11.2738 7.26364 11.2738 7.26364C11.3176 7.25147 11.3615 7.28515 11.3615 7.32978V7.76966H11.3611Z" fill="black"/>
</g>
</svg>
