<svg width="18" height="18" viewBox="0 0 18 18" fill="none" xmlns="http://www.w3.org/2000/svg">
<mask id="mask0_169_1038" style="mask-type:luminance" maskUnits="userSpaceOnUse" x="2" y="2" width="13" height="13">
<path d="M14.7856 2.57202H2.57129V14.7863H14.7856V2.57202Z" fill="white"/>
</mask>
<g mask="url(#mask0_169_1038)">
<path d="M8.73181 2.57029C5.31708 2.54148 2.5431 5.31546 2.57151 8.73019C2.59991 12.0463 5.30937 14.7558 8.62468 14.7834C12.0394 14.813 14.8142 12.0382 14.785 8.62346C14.7574 5.30816 12.0479 2.5987 8.73181 2.57029ZM6.90575 5.60966C7.29653 6.10635 7.53067 6.73451 7.53067 7.41624C7.53067 8.00666 7.35537 8.5561 7.05427 9.01546H4.93726L6.90575 5.60966ZM13.3611 9.76942C13.3611 9.79782 13.3456 9.82217 13.3193 9.83353C13.1756 9.8948 12.7025 10.1143 12.5048 10.3882C11.9968 11.0955 11.6093 12.207 10.7421 12.207H7.12366C5.84217 12.207 4.77048 11.1901 4.77129 9.83556C4.77129 9.80188 4.7997 9.77428 4.83338 9.77428H6.54866C6.60749 9.77428 6.65457 9.82217 6.65457 9.8802V10.2109C6.65457 10.387 6.797 10.5295 6.97311 10.5295H8.27408V9.77226H7.38539C7.89628 9.12502 8.20063 8.30735 8.20063 7.41786C8.20063 6.4253 7.82 5.52079 7.19711 4.84353C7.57368 4.88735 7.93402 4.96242 8.27408 5.06225V4.85164C8.27408 4.63292 8.451 4.45559 8.67013 4.45559C8.88925 4.45559 9.06618 4.63252 9.06618 4.85164V5.35969C10.2807 5.92658 11.0752 6.8672 11.0752 7.93078C11.0752 8.55488 10.8026 9.13598 10.331 9.62455C10.2405 9.71829 10.1151 9.77104 9.98408 9.77104H9.06577V10.5274H10.2182C10.4666 10.5274 10.9125 10.0563 11.1239 9.77226C11.1239 9.77226 11.1333 9.75805 11.1576 9.75075C11.182 9.74344 13.2738 9.2634 13.2738 9.2634C13.3176 9.25122 13.3615 9.2849 13.3615 9.32954V9.76942H13.3611Z" fill="white"/>
</g>
</svg>
