<svg width="42" height="42" viewBox="0 0 42 42" fill="none" xmlns="http://www.w3.org/2000/svg">
<g clip-path="url(#clip0_397_3570)">
<path d="M20.9998 0C15.2965 0 14.5825 0.0367561 12.3425 0.127771C10.1078 0.229288 8.58355 0.579347 7.2483 1.09918C5.86755 1.63652 4.69155 2.35764 3.5243 3.52509C2.35705 4.69253 1.64305 5.86173 1.1058 7.24271C0.586047 8.57818 0.230797 10.1079 0.127547 12.3431C0.0242969 14.5834 -0.00195312 15.2975 -0.00195312 21.0018C-0.00195312 26.706 0.0242969 27.4201 0.127547 29.6604C0.229047 31.8956 0.586047 33.4201 1.1058 34.7555C1.64305 36.1365 2.35705 37.3057 3.5243 38.4732C4.69155 39.6406 5.86755 40.3617 7.2483 40.8991C8.58355 41.4189 10.1078 41.7742 12.3425 41.8775C14.5825 41.979 15.2965 42 20.9998 42C26.703 42 27.417 41.9667 29.657 41.8775C31.8918 41.776 33.4213 41.4189 34.7583 40.8991C36.139 40.3617 37.308 39.6424 38.4753 38.4732C39.6425 37.3057 40.3565 36.1365 40.8938 34.7555C41.4135 33.4201 41.7688 31.8956 41.872 29.6604C41.9753 27.4201 42.0015 26.706 42.0015 21.0018C42.0015 15.2975 41.9753 14.5834 41.872 12.3431C41.7705 10.1079 41.4135 8.57818 40.8938 7.24271C40.3565 5.86173 39.6425 4.69253 38.4753 3.52509C37.308 2.35764 36.139 1.63652 34.7583 1.09918C33.423 0.579347 31.8935 0.229288 29.657 0.127771C27.417 0.0262544 26.703 0 20.9998 0ZM20.9998 3.78238C26.6068 3.78238 27.2683 3.81564 29.4838 3.9049C31.5313 3.99767 32.6478 4.34422 33.388 4.63127C34.368 5.01284 35.0645 5.46616 35.7995 6.20128C36.5345 6.93641 36.9878 7.63302 37.3693 8.61319C37.6563 9.35356 38.0028 10.4702 38.0955 12.5181C38.197 14.7322 38.218 15.3956 38.218 21.0035C38.218 26.6114 38.1953 27.2748 38.0955 29.4889C38.0028 31.5368 37.6563 32.6464 37.3693 33.3868C36.9878 34.367 36.5345 35.0706 35.7995 35.8057C35.0645 36.5408 34.368 36.9942 33.388 37.3757C32.6478 37.6628 31.5313 38.0023 29.4838 38.0969C27.27 38.1984 26.6068 38.2194 20.9998 38.2194C15.3928 38.2194 14.7295 38.1861 12.5158 38.0969C10.4683 38.0041 9.3588 37.6645 8.61855 37.3757C7.63855 36.9942 6.93505 36.5408 6.20005 35.8057C5.46505 35.0706 5.0118 34.367 4.6303 33.3868C4.3433 32.6464 4.0038 31.5368 3.9093 29.4889C3.8078 27.2748 3.7868 26.6114 3.7868 21.0035C3.7868 15.3956 3.80955 14.7322 3.9093 12.5181C4.00205 10.4702 4.34155 9.35356 4.6303 8.61319C5.0118 7.63302 5.46505 6.93641 6.20005 6.20128C6.93505 5.46616 7.63855 5.01284 8.61855 4.63127C9.3588 4.34422 10.4683 3.99767 12.5158 3.9049C14.7295 3.80338 15.3928 3.78238 20.9998 3.78238ZM32.2103 7.26896C30.819 7.26896 29.6885 8.3979 29.6885 9.79113C29.6885 11.1844 30.819 12.3133 32.2103 12.3133C33.6015 12.3133 34.732 11.1844 34.732 9.79113C34.732 8.3979 33.6033 7.26896 32.2103 7.26896ZM20.9998 10.2147C15.0445 10.2147 10.2198 15.0473 10.2198 21.0035C10.2198 26.9597 15.0445 31.7853 20.9998 31.7853C26.955 31.7853 31.7868 26.9597 31.7868 21.0035C31.7868 15.0473 26.955 10.2147 20.9998 10.2147ZM20.9998 14.0041C24.8655 14.0041 27.998 17.1371 27.998 21.0035C27.998 24.8699 24.8655 28.0029 20.9998 28.0029C17.134 28.0029 14.0015 24.8699 14.0015 21.0035C14.0015 17.1371 17.134 14.0041 20.9998 14.0041Z" fill="#4476F1"/>
</g>
<defs>
<clipPath id="clip0_397_3570">
<rect width="42" height="42" fill="white"/>
</clipPath>
</defs>
</svg>
