<svg width="20" height="20" viewBox="0 0 20 20" fill="none" xmlns="http://www.w3.org/2000/svg">
<g clip-path="url(#clip0_161_1869)">
<path d="M10.0001 15.3501C10.3225 15.3501 10.6376 15.2545 10.9057 15.0754C11.1737 14.8963 11.3827 14.6417 11.506 14.3439C11.6294 14.046 11.6617 13.7183 11.5988 13.4021C11.5359 13.0859 11.3807 12.7955 11.1527 12.5675C10.9247 12.3395 10.6343 12.1843 10.3181 12.1214C10.0019 12.0585 9.67419 12.0908 9.37634 12.2142C9.0785 12.3375 8.82393 12.5465 8.64482 12.8145C8.46572 13.0826 8.37012 13.3977 8.37012 13.7201C8.37012 14.1524 8.54185 14.567 8.84753 14.8727C9.15322 15.1784 9.56781 15.3501 10.0001 15.3501Z" fill="white"/>
<path d="M11.18 0.0500786C10.81 0.0500786 10.42 0.0500786 10 0.0500786C4.37 7.85589e-05 3.72 3.58008 3.72 6.28008V7.53008C0.92 7.88008 0 9.30008 0 12.7901V14.6501C0 18.7501 1.25 20.0001 5.35 20.0001H14.65C18.75 20.0001 20 18.7501 20 14.6501V12.7901C20 8.69008 18.75 7.44008 14.65 7.44008H5.12V6.28008C5.12 3.35008 6 1.40008 10 1.40008C10.39 1.40008 10.75 1.40008 11.07 1.45008C11.1759 1.4626 11.2833 1.45298 11.3853 1.42182C11.4873 1.39066 11.5818 1.33864 11.6626 1.26907C11.7435 1.1995 11.809 1.11388 11.855 1.01766C11.901 0.921432 11.9266 0.816692 11.93 0.710079C11.9039 0.528863 11.814 0.362889 11.6766 0.241934C11.5391 0.120979 11.3631 0.0529595 11.18 0.0500786ZM10 16.7401C9.40666 16.7401 8.82664 16.5641 8.33329 16.2345C7.83994 15.9048 7.45542 15.4363 7.22836 14.8881C7.0013 14.3399 6.94189 13.7367 7.05764 13.1548C7.1734 12.5729 7.45912 12.0383 7.87868 11.6188C8.29824 11.1992 8.83279 10.9135 9.41473 10.7977C9.99667 10.682 10.5999 10.7414 11.1481 10.9684C11.6962 11.1955 12.1648 11.58 12.4944 12.0734C12.8241 12.5667 13 13.1467 13 13.7401C13 14.5357 12.6839 15.2988 12.1213 15.8614C11.5587 16.424 10.7956 16.7401 10 16.7401Z" fill="white"/>
</g>
<defs>
<clipPath id="clip0_161_1869">
<rect width="20" height="20" fill="white"/>
</clipPath>
</defs>
</svg>
