<svg width="20" height="26" viewBox="0 0 20 26" fill="none" xmlns="http://www.w3.org/2000/svg">
<path d="M18.9532 13.6055C18.7413 12.5154 17.737 11.7867 16.5799 11.8863C16.4515 10.8299 15.2768 10.1029 14.2169 10.2756C14.7031 9.04546 15.1388 7.79448 15.5285 6.53206C16.0431 4.86442 17.152 2.09658 14.7984 1.22153C12.9902 0.549088 11.8134 1.57222 11.2439 3.10826C10.6293 4.76547 10.1759 6.51388 9.57997 8.18118L9.39516 8.62645C8.79676 6.60542 8.2156 4.57599 7.53552 2.57953C6.31125 -0.217588 2.0284 0.971129 2.67644 4.02807L4.78566 12.0065C2.64969 12.4736 1.15789 14.2789 1.01744 16.3511C0.796735 19.6066 2.69052 22.3499 5.56957 23.9122C10.1506 26.398 16.7077 24.5049 18.1569 19.4444C18.5508 18.0699 18.8095 16.0681 18.9648 14.6299C19.0035 14.2705 19.0232 13.9649 18.9532 13.6055ZM14.2785 11.395C14.9234 11.3118 15.512 11.6982 15.3624 12.3639C15.0192 13.2292 14.6812 14.1009 14.3035 14.9527C14.0138 15.606 13.4851 17.1218 12.484 16.829C12.2147 16.7503 11.9507 16.5174 11.9018 16.2414C11.7934 15.6325 12.6146 13.7101 12.8976 13.07C13.1613 12.4736 13.5115 11.4939 14.2785 11.395ZM3.94929 4.05534C3.74865 3.09076 4.01969 2.07302 5.25418 2.1686C6.05604 2.23086 6.28978 2.66098 6.51717 3.31659C7.12403 5.06433 7.5848 6.92246 8.14484 8.69342C8.3219 9.25345 8.51902 10.0807 8.7686 10.5876C9.0055 11.0692 9.63875 11.1648 9.97316 10.7107C10.906 8.38413 11.5399 5.94678 12.3774 3.58584C12.6751 2.74613 13.0969 1.95118 14.2176 2.24803C15.4342 2.57011 14.9959 3.92071 14.7703 4.76311C14.3542 6.317 13.6801 7.98396 13.1176 9.49645C12.9384 9.97806 12.7755 10.5209 12.5523 10.9763C12.3862 11.3152 12.2436 11.6639 12.0746 12.0136C11.9197 12.3343 11.7934 12.6705 11.6652 13.002C11.6227 13.0545 11.6311 13.0266 11.5941 13.002C11.5262 12.9573 11.4202 12.7927 11.3312 12.7149C10.819 12.269 10.0474 12.0523 9.37193 11.9631C8.27684 11.818 7.12192 11.9227 6.01873 11.8873L3.94929 4.05534ZM11.1316 23.7668C6.53618 24.38 1.91681 20.9949 2.24876 16.3844C2.37653 14.6124 3.7842 13.3032 5.64561 13.0693C6.91529 12.9098 10.2245 12.756 10.5212 13.625C10.6568 14.0221 10.4188 14.3382 10.0974 14.5657C9.07273 15.2909 7.15852 15.0405 6.03246 15.088C5.90257 15.0998 5.72727 15.1779 5.63997 15.2681C5.42314 15.4925 5.44919 15.8294 5.66145 16.0489C5.85364 16.2478 6.38306 16.3326 6.66677 16.4339C7.87028 16.863 8.5588 17.4853 9.16601 18.5542C9.32793 18.8389 9.40396 19.261 9.75527 19.3707C10.1185 19.4838 10.5286 19.2862 10.5564 18.9076C10.6008 18.3065 9.68557 17.1161 9.23641 16.7031L8.6901 16.267C9.4455 16.2363 10.1893 16.0391 10.7666 15.5599C10.4744 16.7021 11.2471 17.8407 12.484 17.9736C12.9909 18.0282 13.4024 17.8908 13.829 17.6465C13.9265 18.1907 14.3493 18.6417 14.8762 18.85C15.7548 19.1977 16.5972 18.9486 17.2435 18.3196C16.7074 21.2793 14.1983 23.3575 11.1316 23.7668ZM16.235 17.7081C15.6774 18.0534 14.9223 17.8326 14.8836 17.1592C14.8488 16.5524 15.8383 14.2345 16.1579 13.5954C16.305 13.3012 16.4317 13.069 16.8151 13.0431C17.2048 13.0168 17.6532 13.316 17.7479 13.6809C17.9781 14.5663 17.0513 17.2029 16.235 17.7081Z" fill="white" stroke="white" stroke-width="0.6"/>
</svg>
