<svg width="12" height="12" viewBox="0 0 12 12" fill="none" xmlns="http://www.w3.org/2000/svg">
<g clip-path="url(#clip0_169_1031)">
<path d="M10.4042 10.0939L6.95778 5.20096L6.56814 4.64758L4.10278 1.14748L3.89852 0.857422H0.869141L1.60798 1.90665L4.88595 6.56098L5.27558 7.11377L7.90936 10.8534L8.1137 11.1432H11.1431L10.4042 10.094V10.0939ZM8.47372 10.4735L5.73743 6.5884L5.3478 6.03535L2.17261 1.52706H3.53841L6.1062 5.17296L6.49584 5.726L9.83953 10.4734H8.47372V10.4735Z" fill="white"/>
<path d="M5.34794 6.03516L5.73758 6.5882L5.27564 7.11357L1.73142 11.143H0.857422L4.886 6.56078L5.34794 6.03516Z" fill="white"/>
<path d="M10.7785 0.857422L6.95802 5.20096L6.49608 5.726L6.10645 5.17296L6.56838 4.64758L9.15635 1.70391L9.90454 0.857422H10.7785Z" fill="white"/>
</g>
<defs>
<clipPath id="clip0_169_1031">
<rect width="10.2857" height="10.2857" fill="white" transform="translate(0.857422 0.857422)"/>
</clipPath>
</defs>
</svg>
