<svg width="12" height="12" viewBox="0 0 12 12" fill="none" xmlns="http://www.w3.org/2000/svg">
<g clip-path="url(#clip0_668_443)">
<path d="M10.4038 10.0939L6.95729 5.20096L6.56765 4.64758L4.10229 1.14748L3.89803 0.857422H0.868652L1.60749 1.90665L4.88546 6.56098L5.2751 7.11377L7.90887 10.8534L8.11321 11.1432H11.1426L10.4038 10.094V10.0939ZM8.47323 10.4735L5.73695 6.5884L5.34731 6.03535L2.17212 1.52706H3.53792L6.10572 5.17296L6.49535 5.726L9.83904 10.4734H8.47323V10.4735Z" fill="black"/>
<path d="M5.34745 6.03516L5.73709 6.5882L5.27515 7.11357L1.73093 11.143H0.856934L4.88552 6.56078L5.34745 6.03516Z" fill="black"/>
<path d="M10.778 0.857422L6.95753 5.20096L6.49559 5.726L6.10596 5.17296L6.56789 4.64758L9.15586 1.70391L9.90405 0.857422H10.778Z" fill="black"/>
</g>
<defs>
<clipPath id="clip0_668_443">
<rect width="10.2857" height="10.2857" fill="white" transform="translate(0.856934 0.857422)"/>
</clipPath>
</defs>
</svg>
