<svg width="43" height="42" viewBox="0 0 43 42" fill="none" xmlns="http://www.w3.org/2000/svg">
<g clip-path="url(#clip0_397_3550)">
<path d="M39.4833 37.7157L25.4103 17.7361L23.8193 15.4765L13.7524 1.18441L12.9183 0H0.54834L3.56526 4.28434L16.9503 23.2895L18.5413 25.5468L29.2959 40.817L30.1303 42.0003H42.5003L39.4833 37.716V37.7157ZM31.6004 39.2656L20.4272 23.4015L18.8362 21.1432L5.87082 2.73438H11.4479L21.933 17.6218L23.524 19.88L37.1774 39.2653H31.6004V39.2656Z" fill="#FF82F3"/>
<path d="M18.8363 21.1436L20.4273 23.4018L18.5411 25.5471L4.06883 42.0007H0.5L16.95 23.2899L18.8363 21.1436Z" fill="#FF82F3"/>
<path d="M41.0108 0L25.4104 17.7361L23.5241 19.88L21.9331 17.6218L23.8193 15.4765L34.3869 3.45649L37.442 0H41.0108Z" fill="#FF82F3"/>
</g>
<defs>
<clipPath id="clip0_397_3550">
<rect width="42" height="42" fill="white" transform="translate(0.5)"/>
</clipPath>
</defs>
</svg>
